<?xml version="1.0" encoding="UTF-8"?>
<svg id="Layer_2" data-name="Layer 2" xmlns="http://www.w3.org/2000/svg" viewBox="0 0 76.3 76.3">
  <defs>
    <style>
      .cls-1 {
        fill: #ffce00;
      }

      .cls-2 {
        fill: #166600;
      }
    </style>
  </defs>
  <g id="Layer_1-2" data-name="Layer 1">
    <g>
      <path class="cls-2" d="M76.3,5.14v66.01c0,2.84-2.31,5.15-5.15,5.15H5.15c-2.84,0-5.14-2.31-5.15-5.15V5.14C0,3.24,1.03,1.6,2.56.7c.76-.45,1.65-.7,2.59-.7h66c2.84,0,5.14,2.31,5.15,5.14Z"/>
      <g>
        <path class="cls-1" d="M44.43,23.58l6.53.88c.86.12,1.53.79,1.65,1.65l.88,6.53c.07.52.83.52.9,0l.88-6.53c.12-.86.79-1.53,1.65-1.65l6.53-.88c.52-.07.52-.83,0-.9l-6.53-.88c-.86-.12-1.53-.79-1.65-1.65l-.88-6.53c-.07-.52-.83-.52-.9,0l-.88,6.53c-.12.86-.79,1.53-1.65,1.65l-6.53.88c-.52.07-.52.83,0,.9Z"/>
        <path class="cls-1" d="M70.31,11.55l-3.29-.44c-.48-.06-.85-.44-.92-.92l-.44-3.29c-.06-.44-.69-.44-.75,0l-.44,3.29c-.06.48-.44.85-.92.92l-3.29.44c-.44.06-.44.69,0,.75l3.29.44c.48.06.85.44.92.92l.44,3.29c.06.44.69.44.75,0l.44-3.29c.06-.48.44-.85.92-.92l3.29-.44c.44-.06.44-.69,0-.75Z"/>
      </g>
      <path class="cls-1" d="M66.73,58.06c.68,1.5-.52,2.94-2.21,4.18-.09.07-.19.14-.3.21-1.7,1.19-3.79,2.18-5,2.85-.6.32-1.41.65-1.98,1.12-.02.02-.05.03-.07.05-.26.23-.48.49-.6.8-.33,1.84,2.84,2.17,3.35,3.79.42.99-.13,2.32.12,3.55.05.53.3,1.1.55,1.68H10.57c.29-.67.59-1.34.62-2,.14-1.19-.39-2.43.14-3.37.64-1.18,2.07-1.6,3-2.49,1.84-1.79-2.14-2.83-3.26-3.57-2.39-1.28-4.97-2.56-6.51-4.73-1.34-2.12,1.55-3.48,2.15-5.29.63-1.65-.18-3.69-1.15-5.34-.62-1.15-1.7-2.45-1.49-3.79.9-1.89,4.43.02,5.91.34,1.14.34,2.21.44,3.24.03.94-.35,1.89-1.03,2.93-.9,2.94.12,5.72,7.13,8.44,5.51.97-1.21.42-3.13.16-4.56-.71-3.27-2.28-8.05-1.23-10.17.63-1.19,2.32-1.38,3.5-1.87,5.3-1.84,5.89-10.26,8.51-10.66.07,0,.14.02.2.03.97.21,1.5,1.5,1.92,2.33,1.16,2.53,2.3,5.2,4.35,7.07,1.2,1.15,2.93,1.43,4.4,2.06,2.94,1.33,1.13,5.81.55,8.9-.06.34-.16.77-.27,1.24-.05.21-.11.43-.16.65-.47,1.96-.94,4.41.31,5.18,1.32.52,2.78-1.1,3.62-2.06,1.2-1.29,2.42-3,4.29-3.29,1.6-.2,3.24,1.08,4.92.82,1.78-.18,3.39-1.1,5.16-1.37,5.34-.63-.42,5.22-.5,7.63-.57,2.42,1.24,3.8,2.37,5.38l.04.07Z"/>
    </g>
  </g>
</svg>